<?xml version="1.0" encoding="UTF-8" standalone="no"?>
<!DOCTYPE svg PUBLIC "-//W3C//DTD SVG 1.1//EN" "http://www.w3.org/Graphics/SVG/1.1/DTD/svg11.dtd">
<svg width="100%" height="100%" viewBox="0 0 581 604" version="1.1" xmlns="http://www.w3.org/2000/svg" xmlns:xlink="http://www.w3.org/1999/xlink" xml:space="preserve" xmlns:serif="http://www.serif.com/" style="fill-rule:evenodd;clip-rule:evenodd;stroke-linecap:round;stroke-linejoin:round;stroke-miterlimit:1.5;">
    <rect x="399.427" y="435.442" width="142.954" height="136.72" style="fill:#2c3532;stroke:#2c3532;stroke-width:8px;"/>
    <g>
        <g>
            <path d="M136.068,-2.845C105.698,-0.325 88.532,4.957 65.243,18.642C52.639,25.965 33.792,43.251 25.51,54.655C19.387,63.418 8.344,85.986 4.742,97.27C-2.82,120.798 -3.541,143.846 -3.661,337.353C-3.781,477.683 -3.541,482.364 1.621,502.411C5.583,517.897 16.266,540.464 24.909,551.628C50.718,585.12 81.089,602.886 122.864,608.768C130.786,609.849 170.16,610.449 270.995,610.929C426.45,611.769 447.337,611.409 464.863,607.448C499.555,599.765 524.644,585.84 544.691,563.032C558.976,546.947 568.099,530.621 575.422,508.173C584.065,481.764 583.585,493.768 583.345,305.542C583.225,199.305 582.744,132.682 581.904,126.68C579.263,105.913 571.1,81.904 560.777,64.858C540.249,31.006 515.161,12.64 472.186,0.156L461.382,-2.965L301.126,-3.086C213.015,-3.086 138.709,-2.965 136.068,-2.845ZM184.445,44.691C184.685,45.892 181.684,49.133 176.042,53.574C152.154,72.421 133.187,98.83 127.785,120.678C126.105,127.4 122.263,157.771 122.263,164.013C122.263,166.534 122.864,166.894 126.705,166.894C129.586,166.894 134.388,168.695 140.87,172.176C152.874,178.658 164.038,182.499 171.12,182.499C175.562,182.499 176.402,182.139 175.922,180.339C170.04,159.091 170.04,141.325 176.162,127.04C182.404,112.155 189.607,104.112 194.649,106.033C196.209,106.633 195.849,108.433 192.848,117.317C189.967,125.599 189.007,130.641 188.527,140.725C187.926,155.25 189.007,161.012 194.529,172.416C200.651,185.02 204.732,188.862 220.818,196.904C228.741,200.866 236.063,204.107 237.023,204.107C239.424,204.107 240.625,200.506 242.786,186.581C245.306,169.655 248.548,161.852 256.11,154.049C260.432,149.488 262.953,147.807 264.273,148.407C266.914,149.368 266.794,152.609 263.913,161.732C260.312,173.376 258.631,194.143 260.312,205.787C262.112,218.272 264.633,223.794 271.596,230.516C274.597,233.517 276.997,236.638 276.877,237.479C276.517,239.279 252.989,252.124 250.108,252.124C249.148,252.124 246.387,249.243 244.226,245.761C230.901,224.874 207.133,213.35 157.676,203.387C121.783,196.304 100.416,185.861 80.129,165.573C72.446,157.891 65.724,145.286 62.843,133.042C59.722,119.477 61.042,88.506 65.243,75.542C67.764,68.219 71.966,64.138 75.207,65.939C78.928,67.859 79.168,70.14 77.968,87.186C76.767,103.872 77.968,120.798 80.849,130.401C82.65,136.403 91.773,150.808 94.414,151.889C96.574,152.729 97.895,148.648 100.776,131.121C103.897,112.995 110.499,94.028 116.982,84.545C127.305,69.54 148.793,52.854 166.679,46.012C177.603,41.81 183.845,41.33 184.445,44.691ZM421.528,47.452C439.294,56.695 461.142,75.902 469.065,89.227C478.428,105.192 483.11,126.08 481.789,146.127C481.429,152.969 481.429,158.491 481.789,158.491C482.149,158.491 484.43,157.05 486.711,155.25C492.953,150.568 501.836,132.082 505.077,117.317C507.118,108.193 507.598,101.591 507.598,85.986C507.598,70.86 507.958,66.059 509.279,64.978C512.04,62.697 514.561,64.738 518.402,72.541C530.046,96.549 527.525,134.363 512.4,159.691C499.555,181.419 480.709,192.223 435.813,203.387C405.682,210.949 400.761,212.51 389.477,218.152C374.712,225.594 366.789,232.437 357.786,245.401C355.745,248.402 353.104,251.283 352.024,251.764C349.623,252.604 325.134,241.44 325.134,239.399C325.134,238.559 326.575,236.278 328.255,234.478C333.417,229.076 339.539,214.911 341.46,203.867C343.621,191.863 342.901,175.777 339.419,162.332C338.219,157.411 337.138,152.369 337.138,151.048C337.138,147.687 342.3,148.287 346.142,152.129C353.944,159.931 358.986,174.216 360.547,193.063C361.507,202.786 361.507,202.906 364.748,202.906C369.43,202.906 388.636,193.063 393.558,188.021C399.08,182.619 407.603,165.693 409.164,157.411C411.685,143.846 409.764,128.961 403.522,113.115C401.841,108.914 400.761,105.312 401.121,104.832C402.201,103.872 409.284,108.553 414.205,113.715C419.487,119.117 423.089,126.92 425.369,137.844C427.77,148.888 427.53,158.491 424.769,170.255C423.449,175.777 422.368,180.819 422.368,181.539C422.368,183.94 433.532,181.419 442.535,176.977C452.379,172.176 456.94,167.134 460.302,156.93C464.503,144.926 461.982,121.998 454.78,106.153C447.697,90.307 432.692,71.581 414.926,56.095C406.763,48.893 404.962,46.372 406.283,44.211C407.483,42.41 414.926,43.971 421.528,47.452ZM469.785,225.594C471.826,232.077 462.222,261.127 453.699,274.091C446.737,284.655 434.372,296.419 425.729,300.621C414.806,305.902 392.238,309.144 388.997,305.902C388.156,305.062 387.556,302.301 387.556,299.54C387.556,293.658 383.595,285.015 376.872,276.132C374.231,272.531 371.951,268.569 371.951,267.369C371.951,261.127 385.275,244.801 394.999,239.039C408.203,231.236 439.654,223.794 461.622,223.434C467.864,223.314 469.185,223.674 469.785,225.594ZM164.398,227.515C176.402,229.556 193.088,235.078 201.731,239.759C210.374,244.441 220.578,254.765 225.86,264.248C231.862,275.052 233.902,276.612 239.544,275.532C242.065,275.172 250.828,271.33 259.111,267.249C282.279,255.605 287.441,253.924 302.326,253.924L315.051,253.924L328.135,260.287C352.624,272.171 363.188,281.294 369.67,295.939C371.831,300.861 372.071,302.901 371.35,309.024C369.07,325.589 370.39,328.35 388.636,348.998C401.001,362.922 406.763,369.885 406.763,370.965C406.763,371.565 400.641,372.166 393.078,372.406C381.314,372.646 378.793,373.126 375.912,375.287C370.87,379.128 370.87,383.81 376.032,390.652C378.433,393.653 380.354,396.654 380.354,397.134C380.354,398.695 357.306,407.338 351.544,407.818C345.661,408.418 310.009,402.536 295.124,398.455C280.359,394.493 266.314,385.37 258.991,375.167C254.55,369.045 253.469,368.564 252.029,372.406C250.588,376.127 254.79,387.531 260.912,396.774C263.553,400.736 269.795,408.058 274.717,413.1C284.56,423.063 291.523,427.145 316.011,437.108C331.016,443.11 330.896,442.99 343.021,464.478C355.865,487.286 358.506,498.09 354.545,512.975C349.383,532.662 335.938,547.427 310.129,561.472C290.802,572.036 290.082,572.156 282.159,569.755C270.875,566.274 249.628,555.83 238.584,548.387C209.654,528.7 191.167,499.17 185.285,462.917C183.005,448.632 183.005,418.742 185.285,403.016C189.967,372.046 201.131,340.234 205.933,344.916C206.293,345.396 205.452,356.32 204.012,369.405C199.69,409.979 200.891,429.306 209.534,458.356C213.855,472.761 218.657,483.805 224.659,493.288C233.062,506.253 246.027,520.177 255.75,526.66L264.513,532.422L275.557,532.422C294.163,532.422 293.683,528.94 273.036,513.575C256.11,500.971 250.828,496.169 243.746,486.326C231.982,470.36 223.819,451.874 218.777,430.386C216.856,422.463 216.496,416.101 216.496,394.373C216.616,364.723 218.297,351.999 224.299,336.393C229.341,323.068 229.701,321.028 227.42,317.547C224.179,312.505 217.217,309.984 201.491,307.943C177.723,304.822 163.678,298.46 151.434,285.255C146.032,279.493 142.07,273.491 138.469,265.929C132.587,253.804 125.144,229.436 126.345,226.195C127.065,224.394 128.506,224.274 140.75,224.874C148.192,225.354 158.876,226.555 164.398,227.515ZM396.679,409.499C399.68,410.339 402.441,411.659 402.801,412.5C403.882,415.381 399.92,419.822 393.438,423.063C384.435,427.505 375.792,427.385 367.509,422.583C364.028,420.543 361.147,418.622 361.147,418.262C361.147,417.301 374.231,411.779 380.834,409.979C388.516,407.938 390.077,407.818 396.679,409.499ZM476.747,447.432C475.187,447.672 472.546,447.672 470.745,447.432C468.825,447.192 470.145,446.952 473.386,446.952C476.747,446.952 478.188,447.192 476.747,447.432ZM486.711,468.319C492.113,470.36 495.714,472.881 501.596,478.883C511.439,488.966 509.159,490.047 495.234,481.764L485.39,476.002L473.986,476.002C462.822,476.002 462.342,476.122 453.339,481.044C444.816,485.605 443.976,485.845 443.976,483.685C443.976,477.923 448.057,473.721 458.981,468.079C465.343,464.838 467.024,464.478 472.906,465.078C476.627,465.438 482.869,466.879 486.711,468.319ZM482.989,483.805C485.75,485.125 490.312,488.846 492.953,492.088C497.034,497.009 498.715,498.09 503.277,498.69C509.519,499.65 509.999,500.611 509.999,510.694C509.999,521.138 507.238,529.301 501.596,535.663C492.713,545.746 479.268,548.987 464.983,544.426C459.221,542.625 456.34,540.705 450.458,534.702C442.415,526.66 439.174,519.697 439.174,510.574C439.174,503.612 440.735,500.971 445.296,500.01C447.817,499.41 450.218,497.369 453.099,493.408C457.901,486.806 467.144,481.404 473.866,481.404C476.147,481.404 480.229,482.484 482.989,483.805Z" style="fill:#2c3532;fill-rule:nonzero;stroke:#2c3532;stroke-width:1px;stroke-linecap:butt;stroke-miterlimit:2;"/>
            <path d="M731,145.25L731,458.75C731,621.703 598.703,754 435.75,754L145.25,754C-17.703,754 -150,621.703 -150,458.75L-150,145.25C-150,-17.703 -17.703,-150 145.25,-150L435.75,-150C598.703,-150 731,-17.703 731,145.25ZM581,145.25C581,65.084 515.916,0 435.75,0L145.25,0C65.084,0 0,65.084 0,145.25L0,458.75C0,538.916 65.084,604 145.25,604L435.75,604C515.916,604 581,538.916 581,458.75L581,145.25Z" style="fill:#2c3532;"/>
        </g>
        <path d="M416.126,252.604C406.163,256.205 391.518,267.129 388.276,273.611C385.515,278.893 387.676,280.934 395.599,280.934C405.322,280.934 411.324,277.693 419.007,267.969C428.01,256.685 430.771,252.604 429.931,251.644C428.61,250.443 420.808,250.923 416.126,252.604Z" style="fill:#2c3532;fill-rule:nonzero;stroke:#2c3532;stroke-width:1px;stroke-linecap:butt;stroke-miterlimit:2;"/>
        <path d="M166.799,250.803C165.478,251.644 167.279,254.404 174.242,263.288C185.285,277.092 191.768,281.534 201.131,281.534C204.492,281.534 207.733,281.174 208.213,280.574C209.534,279.253 204.852,270.37 199.69,264.368C194.769,258.726 187.686,254.645 177.603,251.644C170.16,249.483 169.08,249.363 166.799,250.803Z" style="fill:#2c3532;fill-rule:nonzero;stroke:#2c3532;stroke-width:1px;stroke-linecap:butt;stroke-miterlimit:2;"/>
        <path d="M267.754,298.34C254.91,301.941 250.948,308.543 261.632,308.543C263.073,308.543 265.954,311.304 269.435,316.226C276.277,325.709 281.079,328.47 292.483,329.311C301.846,330.031 308.689,333.152 314.21,339.034C317.692,342.755 320.333,341.435 320.333,336.153C320.333,331.351 312.29,316.466 305.928,309.384C296.684,299.06 281.319,294.619 267.754,298.34Z" style="fill:#2c3532;fill-rule:nonzero;stroke:#2c3532;stroke-width:1px;stroke-linecap:butt;stroke-miterlimit:2;"/>
        <path d="M731,0L731,604C731,686.843 663.843,754 581,754L0,754C-82.843,754 -150,686.843 -150,604L-150,-0C-150,-82.843 -82.843,-150 0,-150L581,-150C663.843,-150 731,-82.843 731,0ZM581,0L0,0L0,604L581,604L581,0Z" style="fill:#2c3532;"/>
    </g>
</svg>
